# xmcd
#
# Track frame offsets: 
#        150
#        15738
#        29650
#        43971
#        58509
#        71108
#        84388
#        98765
#        113958
#        128732
#        141923
#        157050
#        170467
#        184071
#
# Disc length: 2665 seconds
#
# Revision: 5
# Processed by: cddbd v1.5.1PL0 Copyright (c) Steve Scherf et al.
# Submitted via: ExactAudioCopy v0.95a5
#
DISCID=c70a670e
DTITLE=Various Artist - Sultry Divas (Disk 1 of 2)
DYEAR=1999
DGENRE=Blues
TTITLE0=Mamie Smith - Crazy Blues
TTITLE1=Lucille  Hegamin - Land of Cotton Blues
TTITLE2=Sara Martin - Blind Man Blues
TTITLE3=Eva Taylor - Jazzin' Babies Blues
TTITLE4=Esther Bigeou - West Indies Blues
TTITLE5=Alberta Hunter - Texas Moaner
TTITLE6=Ma Rainey - Jelly Bean Blues
TTITLE7=Ethel Waters - Shake That Thing
TTITLE8=Clara Smith - Shipwrecked Blues
TTITLE9=Bertha Chippie Hill - Pratt City Blues
TTITLE10=Bessie Smith - Back Water Blues
TTITLE11=Hattie McDaniel - I Thought I'd Do It
TTITLE12=Pearl Dickson - Little Rock Blues
TTITLE13=Bessie Tucker - Penitentiary
EXTD=LABEL =Allegro Corporation\nID =crg212000\nUPC =723723-519221\n
EXTD=COPYRIGHT =1999\n*****\nYEAR: 1999\nID3G: 0
EXTT0=
EXTT1=
EXTT2=
EXTT3=
EXTT4=
EXTT5=
EXTT6=
EXTT7=
EXTT8=
EXTT9=
EXTT10=
EXTT11=
EXTT12=
EXTT13=
PLAYORDER=
